<?xml version="1.0" standalone="no"?>
<!DOCTYPE svg PUBLIC "-//W3C//DTD SVG 20010904//EN"
 "http://www.w3.org/TR/2001/REC-SVG-20010904/DTD/svg10.dtd">
<svg version="1.0" xmlns="http://www.w3.org/2000/svg"
 width="24.000000pt" height="24.000000pt" viewBox="0 0 24.000000 24.000000"
 preserveAspectRatio="xMidYMid meet">

<g transform="translate(0.000000,24.000000) scale(0.100000,-0.100000)"
fill="#000000" stroke="none">
<path d="M70 219 c0 -5 -11 -14 -25 -19 -17 -6 -25 -17 -25 -33 0 -13 -5 -28
-12 -35 -9 -9 -9 -15 0 -24 7 -7 12 -22 12 -35 0 -16 8 -27 25 -33 14 -5 25
-14 25 -20 0 -5 23 -10 50 -10 28 0 50 5 50 10 0 6 11 15 25 20 17 6 25 17 25
33 0 13 5 28 12 35 9 9 9 15 0 24 -7 7 -12 22 -12 35 0 16 -8 27 -25 33 -14 5
-25 14 -25 19 0 5 -22 9 -50 9 -27 0 -50 -4 -50 -9z m97 -24 c7 -7 18 -15 25
-17 16 -6 16 -110 0 -116 -7 -2 -19 -10 -26 -18 -16 -16 -86 -19 -86 -5 0 5
-9 13 -20 16 -11 3 -20 14 -20 24 0 9 -5 22 -12 29 -9 9 -9 15 0 24 7 7 12 20
12 29 0 10 9 21 20 24 11 3 20 10 20 15 0 13 72 9 87 -5z"/>
<path d="M133 128 c-19 -18 -24 -19 -38 -8 -24 20 -32 2 -9 -20 20 -20 20 -20
54 15 19 19 30 35 24 35 -5 0 -19 -10 -31 -22z"/>
</g>
</svg>
